<?xml version="1.0" encoding="UTF-8" standalone="no"?>
<!-- Created with Inkscape (http://www.inkscape.org/) -->

<svg
   xmlns:dc="http://purl.org/dc/elements/1.1/"
   xmlns:cc="http://creativecommons.org/ns#"
   xmlns:rdf="http://www.w3.org/1999/02/22-rdf-syntax-ns#"
   xmlns:svg="http://www.w3.org/2000/svg"
   xmlns="http://www.w3.org/2000/svg"
   xmlns:sodipodi="http://sodipodi.sourceforge.net/DTD/sodipodi-0.dtd"
   xmlns:inkscape="http://www.inkscape.org/namespaces/inkscape"
   width="362.42188mm"
   height="106.67495mm"
   viewBox="0 0 1284.172 377.9821"
   id="svg3349"
   version="1.1"
   inkscape:version="0.91 r13725"
   sodipodi:docname="Capital (depuis 2015).svg">
  <defs
     id="defs3351" />
  <sodipodi:namedview
     id="base"
     pagecolor="#ffffff"
     bordercolor="#666666"
     borderopacity="1.0"
     inkscape:pageopacity="0.0"
     inkscape:pageshadow="2"
     inkscape:zoom="0.49497475"
     inkscape:cx="788.8459"
     inkscape:cy="486.1978"
     inkscape:document-units="px"
     inkscape:current-layer="layer1"
     showgrid="false"
     fit-margin-left="1"
     fit-margin-bottom="1"
     fit-margin-top="1"
     fit-margin-right="1"
     inkscape:window-width="1920"
     inkscape:window-height="1017"
     inkscape:window-x="-8"
     inkscape:window-y="-8"
     inkscape:window-maximized="1" />
  <metadata
     id="metadata3354">
    <rdf:RDF>
      <cc:Work
         rdf:about="">
        <dc:format>image/svg+xml</dc:format>
        <dc:type
           rdf:resource="http://purl.org/dc/dcmitype/StillImage" />
        <dc:title></dc:title>
      </cc:Work>
    </rdf:RDF>
  </metadata>
  <g
     inkscape:label="Calque 1"
     inkscape:groupmode="layer"
     id="layer1"
     transform="translate(176.36664,-815.68851)">
    <path
       style="fill:#000000"
       d="m 318.0194,1190.1273 0,-100.0419 0,-146.10358 0,-46.75 38.29176,0 36.02318,0 0,14.55571 0,14.55572 6.3484,-5.3704 c 12.69335,-10.73789 27.15507,-23.18182 42.20839,-26.6575 6.17204,-1.42507 28.49265,-1.39043 34.54283,0.0536 5.66918,1.3531 19.73655,6.61601 23.26435,8.7037 17.72275,10.48799 30.06328,23.56487 39.12192,41.45626 16.4002,32.39147 19.2038,76.54639 7.25127,114.20289 -9.18683,28.9431 -27.66731,51.3512 -51.43018,62.3605 -11.49896,5.3274 -19.37988,7.199 -32.94301,7.8236 -13.53064,0.623 -24.11392,-1.0612 -35.6209,-5.6689 -9.67278,-3.8731 -14.99779,-7.5495 -25.05054,-17.295 l -7.69253,-7.9216 0,44.3253 0,47.7716 0,0 -37.51671,0 z M 441.21032,1062.145 c 12.59584,-2.3285 20.65492,-8.0163 28.53417,-20.1384 9.7092,-14.9374 10.74796,-40.3514 2.3315,-57.04158 -5.38386,-10.6764 -10.85156,-16.31634 -20.37768,-21.01962 -6.08447,-3.00406 -7.17123,-3.20751 -17,-3.18261 -10.24198,0.0259 -10.67902,0.12155 -17.78544,3.89031 -16.16489,8.57276 -24.57853,25.50687 -24.57853,47.1825 0,18.6792 5.10057,31.0811 19.68612,43.9342 3.21981,2.8373 15.6273,7.1458 21.24419,7.377 1.13649,0.047 4.71204,-0.4041 7.94567,-1.0018 z m 414.25589,67.627 c -19.7164,-4.3162 -37.117,-17.2742 -44.3138,-32.9999 -5.8797,-12.8476 -6.8643,-17.6261 -6.9113,-33.5403 -0.05,-16.8732 1.1243,-23.103 6.504,-34.5095 9.6099,-20.3757 30.5176,-33.67926 58.9532,-37.51173 19.1729,-2.58406 48.14867,0.2821 64.87847,6.41748 l 4.3786,1.60576 -0.4572,-7.89801 c -0.9554,-16.50296 -10.3156,-26.87084 -27.99267,-31.00616 -6.5834,-1.54009 -26.7785,-1.33437 -36.3072,0.36984 -8.7861,1.57141 -25.7734,6.31417 -31.9035,8.90733 -2.147,0.9082 -4.044,1.51085 -4.2156,1.33923 -0.1716,-0.17162 -1.6482,-5.46503 -3.2812,-11.76313 -1.6331,-6.2981 -4.8515,-18.42609 -7.1521,-26.95109 -2.3006,-8.525 -4.2424,-16.09327 -4.3152,-16.81838 -0.164,-1.63319 8.3708,-5.22196 23.0878,-9.70812 19.391,-5.9109 37.0604,-8.37121 60.2798,-8.39337 27.21837,-0.026 44.92067,3.30496 61.70097,11.60997 24.3813,12.06693 37.29622,30.39868 42.93872,60.94821 1.6631,9.00428 1.7986,15.59997 1.5586,75.86167 -0.2293,57.5607 -0.6998,81.3054 -1.63,82.2587 -0.1388,0.1423 -16.74852,-0.043 -36.91042,-0.4119 l -36.6579,-0.6707 0,-10.6485 0,-10.6484 -5.25,4.8978 c -10.3974,9.7 -20.54367,15.234 -34.24997,18.6806 -9.4002,2.3638 -33.1186,2.6872 -42.7321,0.5826 z m 63.92187,-51.0892 c 12.4134,-6.0734 18.8699,-16.885 19.953,-33.4124 0.3618,-5.5212 0.4713,-10.0386 0.2434,-10.0386 -0.2279,0 -2.8352,-0.8848 -5.794,-1.9663 -7.3762,-2.6961 -20.0915,-4.418 -27.46557,-3.7195 -10.381,0.9834 -16.534,3.5244 -22.1605,9.1514 -5.6277,5.6283 -7.4692,10.2319 -7.4605,18.6504 0.01,7.4167 1.5531,12.3119 5.1974,16.4624 5.7954,6.6006 11.395,8.5244 23.1705,7.9605 7.0013,-0.3353 10.02177,-0.9868 14.31627,-3.0879 z m -189.68977,50.621 c -3.025,-0.4414 -9.0511,-2.0064 -13.39139,-3.4777 -22.3464,-7.5752 -34.69872,-24.382 -38.66411,-52.6073 -0.84947,-6.0464 -0.0226,-23.059 -0.0226,-58.7208 l 0,-51.60063 -12.30356,0 -12.67931,0 0,-33.91555 0,-30.20694 12.45088,0 12.53199,0 0,-10.79306 0,-29.15872 0,-17.24982 21.32858,0 37.6378,0 16.74995,0 0,28.90891 0,28.29269 24.62585,0 24.7637,0 -0.2637,33.22481 -0.2636,30.89768 -24.75,0 -24.11225,0 0,43.98113 c 0,42.5484 -0.61775,42.969 1.61225,47.3339 5.3878,10.5456 22.0099,11.9117 41.4011,3.4025 1.7332,-0.7605 3.4207,-1.3827 3.75,-1.3827 0.3294,0 0.5989,14.1042 0.5989,31.3428 l 0,31.3427 -4.25,2.0309 c -13.6297,6.5128 -22.9172,8.3817 -43.75,8.8037 -9.625,0.195 -19.975,-0.01 -23,-0.4481 z m 299.75009,-1.4015 c 0.5242,-104.0987 -0.8427,-214.70269 0,-305.20685 24.6486,-0.33917 50.1761,-0.59651 74.8136,0 l 0,122.19832 0,152.00853 0,31 z m -1080.250089,-2.1602 c -20.16242,-2.7994 -36.63944,-8.7239 -54.574191,-19.6228 -8.1179,-4.9333 -13.20707,-9.1738 -24.46759,-20.3875 -20.93327,-20.8462 -34.8131,-47.9215 -40.61532,-79.2281 -3.11955,-16.83191 -3.15738,-44.03868 -0.0838,-60.27188 6.0489,-31.9476 19.46674,-58.79929 40.05532,-80.15841 9.29346,-9.64128 20.11252,-18.5934 27.6856,-22.90816 14.305591,-8.15061 26.984471,-13.56292 37.500001,-16.00786 16.92714,-3.93569 18.94405,-4.15543 38.5,-4.19451 14.87386,-0.0297 22.2165101,0.39468 28.6478701,1.65586 17.1178199,3.35678 30.9273499,8.24723 41.7043299,14.769 3.4937,2.11424 6.60281,3.84408 6.90912,3.84408 0.30631,0 3.07281,1.85394 6.14779,4.11986 7.74004,5.70355 23.65861,21.99845 29.51095,30.2086 l -53.73388,53.56099 c -0.14265,-0.2142 -3.56017,-4.10982 -7.59449,-8.65694 -8.91222,-10.04503 -20.3906099,-17.97884 -31.5917099,-21.83604 -11.3923401,-3.92305 -26.0729401,-4.49022 -36.5443701,-1.41184 -28.05631,8.24795 -45.90325,32.02055 -50.02818,66.63883 -2.51335,21.09323 3.80059,46.38652 15.35961,61.52962 5.61938,7.3618 6.97544,8.7753 12.2646,12.7837 22.95325,17.3955 54.69577,17.2591 78.10193,-0.3356 5.95611,-4.4773 18.21947,-16.765 20.1186,-20.1586 0.9108,-1.6275 1.69871,-1.29 8.36665,3.5838 4.04864,2.9592 8.75943,6.5264 10.46842,7.927 5.13602,4.2093 6.48439,5.2483 16.81985,12.9613 5.45992,4.0745 10.63492,7.9916 11.5,8.7047 0.86509,0.713 3.37289,2.7079 5.57289,4.4329 l 4,3.1365 0.64569,-8.8444 c 2.13096,-29.189 16.046909,-48.3186 43.104309,-59.2537 9.50283,-3.84051 17.61342,-5.15752 35.25,-5.72396 19.99718,-0.64225 35.29887,1.09657 49.45969,5.6204 3.46547,1.10708 6.5325,2.01288 6.81562,2.01288 0.87467,0 -0.57184,-13.58707 -1.93403,-18.16639 -1.92217,-6.46176 -10.70609,-14.98303 -18.34128,-17.79284 -8.05613,-2.96472 -19.68402,-4.03194 -33,-3.02878 -13.15766,0.99124 -22.36416,3.76977 -35.86569,7.57426 l -11.10913,3.13035 -14.79845,-55.21342 11.46302,-5.58081 c 22.43385,-10.92201 43.7018,-12.00287 72.81025,-12.02403 39.61804,-0.0288 62.13695,7.3164 81.55515,26.60166 11.71391,11.63371 18.50484,25.67321 21.90928,45.29499 0.69095,3.98235 0.69275,9.03916 0.90603,21.25963 0.20443,11.71328 0.0315,30.00796 0,60.24596 -0.0414,39.8036 0,73.3042 0,74.5347 l 0,2.1647 -37.48709,0 -36.88337,0 0,-11.145 0,-11.1451 -5.25,4.9499 c -16.70933,15.7541 -34.8702,22.0503 -60.75,21.0615 -15.44448,-0.59 -21.93384,-2.0881 -33.73749,-7.7883 -18.0897,-8.7358 -29.386559,-24.5491 -33.284179,-46.5909 l -1.26573,-7.1579 -4.6063,6.1338 c -16.65124,22.1732 -40.76106,40.2106 -64.31297,48.1148 -20.17782985,6.7718 -48.74961,9.2074 -71.29333,6.0775 z m 253.963669,-50.5826 c 6.94253,-2.5975 15.70129,-10.5591 18.32433,-16.6565 2.61219,-6.0722 4.43474,-16.3501 4.02588,-22.7032 -0.30184,-4.6902 -0.46725,-4.9322 -4.31388,-6.3116 -12.01212,-4.3076 -28.79448,-5.5104 -37.98573,-2.7224 -13.49703,4.0939 -20.34721,13.1011 -20.4584,26.9003 -0.094,11.6617 5.53105,19.4739 16.543,22.9756 6.05442,1.9252 16.49005,1.2771 23.8648,-1.4822 z m 363.64561,-30.1777 0,-113.53765 0,-32.66927 30.25732,0 37.5293,0 7.95715,0 0,64.12249 0,111.08443 0,51.25 -39.50733,0 -36.23644,0 z m 33.03881,-167.17255 -33.03881,0 0,-30.65922 0,-27.91821 38.89072,0 36.85305,0 0,29.38337 0,29.19406 z"
       id="path3368"
       inkscape:connector-curvature="0"
       sodipodi:nodetypes="ccccccccsssssssscsccccccccssssssscssssssscssssscscssssscscccsssssssssccsccssscccccccccccccccccccccsscssccsccccccccsssssssssssssccsssssssssssscccssssssssccsssssssccccccsssscssssssscssccccccccccccccccccccc" />
  </g>
</svg>
